# xmcd CD database file
#
# Track frame offsets:
#	150
#	21100
#	36385
#	61605
#	82126
#	106101
#	127670
#	146779
#	174241
#	192793
#	216994
#	239332
#	256789
#	280273
#	301057
#	324574
#
# Disc length: 4611 seconds
#
# Revision: 13
# Processed by: cddbd v1.5.2PL0 Copyright (c) Steve Scherf et al.
# Submitted via: CDex 2.06
#
DISCID=d6120110
DTITLE=Various Artist - CLIMAX BEST 90's PLATINUM [Disc 1]
DYEAR=2011
DGENRE=J-Pop
TTITLE0=komekomeCLUB - Kimitoirudakede
TTITLE1=DREAMS COME TRUE - LOVE LOVE LOVE
TTITLE2=GLAY - HOWEVER
TTITLE3=N.Makihara - Moukoinanteshinai
TTITLE4=SPEED - STEADY
TTITLE5=M.Okamoto - TOMORROW
TTITLE6=JUDY AND MARY - Sobakasu
TTITLE7=TRF - CRAZY GONNA CRAZY
TTITLE8=KAN - Aiwakatsu
TTITLE9=DaijiManBrothersBand - soregadaiji
TTITLE10=T.Okuda - ainotameni
TTITLE11=F.Fujii - TRUE LOVE
TTITLE12=Every Little Thing - Time goes by
TTITLE13=M.Ono - You're the Only...
TTITLE14=S.Hamada - Kanashimihayukinoyouni
TTITLE15=CHAGE and ASKA - SAY YES
EXTD=YEAR: 2011
EXTT0=
EXTT1=
EXTT2=
EXTT3=
EXTT4=
EXTT5=
EXTT6=
EXTT7=
EXTT8=
EXTT9=
EXTT10=
EXTT11=
EXTT12=
EXTT13=
EXTT14=
EXTT15=
PLAYORDER=
